<svg width="443" height="156" viewBox="0 0 443 156" fill="none" xmlns="http://www.w3.org/2000/svg">
<path d="M72.1054 54.8947C67.9246 54.8947 66.7158 56.7493 66.7158 60.84V67.626H77.8676L76.7498 78.5893H66.7201V111.861H53.3371V78.5893H44.3212V67.626H53.3371V61.0263C53.3371 49.9677 57.7952 44.1263 70.2338 44.1263C72.8403 44.1202 75.4448 44.2751 78.0322 44.59V54.9077L72.1054 54.8947Z" fill="#1877F2"/>
<path d="M78.7947 88.348C78.7947 75.9893 84.6479 66.6813 96.9132 66.6813C103.602 66.6813 107.688 70.122 109.642 74.3947V67.626H122.462V111.861H109.642V105.17C107.783 109.447 103.602 112.792 96.9132 112.792C84.6479 112.792 78.7947 103.497 78.7947 91.1257V88.348ZM92.1734 91.325C92.1734 97.9203 94.5866 102.288 100.812 102.288C106.297 102.288 109.083 98.293 109.083 91.975V87.5333C109.083 81.2153 106.297 77.22 100.812 77.22C94.5866 77.22 92.1734 81.588 92.1734 88.1833V91.325Z" fill="#1877F2"/>
<path d="M150.337 66.6943C155.536 66.6943 160.462 67.8123 163.157 69.667L160.185 79.1483C157.397 77.8206 154.352 77.1224 151.264 77.103C144.016 77.103 140.866 81.2847 140.866 88.4433V91.0433C140.866 98.202 144.025 102.384 151.264 102.384C154.352 102.364 157.397 101.666 160.185 100.338L163.157 109.815C160.462 111.674 155.54 112.792 150.337 112.792C134.632 112.792 127.479 104.334 127.479 90.766V88.7207C127.479 75.153 134.632 66.6943 150.337 66.6943Z" fill="#1877F2"/>
<path d="M164.92 91.4333V87.5333C164.92 74.9883 172.073 66.7333 186.665 66.7333C200.416 66.7333 206.455 75.0967 206.455 87.3643V94.4277H178.294C178.576 100.468 181.271 103.164 188.692 103.164C193.714 103.164 199.008 102.141 202.912 100.468L205.359 109.633C201.828 111.497 194.58 112.888 188.172 112.888C171.237 112.883 164.92 104.433 164.92 91.4333ZM178.299 85.67H194.468V84.5563C194.468 79.7247 192.518 75.8897 186.669 75.8897C180.625 75.894 178.299 79.7073 178.299 85.6527V85.67Z" fill="#1877F2"/>
<path d="M256.049 91.1387C256.049 103.497 250.105 112.805 237.853 112.805C231.164 112.805 226.519 109.46 224.661 105.183V111.874H212.027V45.4133L225.406 44.2V73.7533C227.355 69.8533 231.631 66.69 237.857 66.69C250.122 66.69 256.054 75.985 256.054 88.3567L256.049 91.1387ZM242.671 88.0707C242.671 81.8437 240.257 77.1983 233.845 77.1983C228.36 77.1983 225.388 81.0983 225.388 87.4207V92.066C225.388 98.384 228.36 102.288 233.845 102.288C240.257 102.288 242.671 97.643 242.671 91.416V88.0707Z" fill="#1877F2"/>
<path d="M260.525 90.857V88.6297C260.525 75.894 267.773 66.6943 282.547 66.6943C297.32 66.6943 304.573 75.894 304.573 88.6297V90.857C304.573 103.588 297.325 112.792 282.551 112.792C267.777 112.792 260.525 103.588 260.525 90.857ZM291.19 87.698C291.19 81.8437 288.773 77.1983 282.525 77.1983C276.278 77.1983 273.882 81.8437 273.882 87.698V91.7887C273.882 97.643 276.299 102.288 282.525 102.288C288.751 102.288 291.19 97.643 291.19 91.7887V87.698Z" fill="#1877F2"/>
<path d="M309.023 90.857V88.6297C309.023 75.894 316.271 66.6943 331.044 66.6943C345.818 66.6943 353.066 75.894 353.066 88.6297V90.857C353.066 103.588 345.818 112.792 331.044 112.792C316.271 112.792 309.023 103.588 309.023 90.857ZM339.688 87.698C339.688 81.8437 337.27 77.1983 331.044 77.1983C324.819 77.1983 322.406 81.8437 322.406 87.698V91.7887C322.406 97.643 324.819 102.288 331.044 102.288C337.27 102.288 339.688 97.643 339.688 91.7887V87.698Z" fill="#1877F2"/>
<path d="M371.462 88.7207L384.655 67.626H398.869L385.027 89.466L399.428 111.861H385.213L371.462 90.194V111.861H358.079V45.4133L371.462 44.2V88.7207Z" fill="#1877F2"/>
</svg>
